<svg height="144" viewBox="0 0 169 144" width="169" xmlns="http://www.w3.org/2000/svg" xmlns:xlink="http://www.w3.org/1999/xlink"><radialGradient id="a" cx="67.409%" cy="99.675%" gradientTransform="matrix(.65455 0 0 1 .233 0)" r="90.162%"><stop offset="0" stop-color="#ffbd00"/><stop offset=".9479" stop-color="#ffbd00" stop-opacity="0"/></radialGradient><linearGradient id="b" x1="107.584%" x2="-28.839%" y1="76.66%" y2="22.717%"><stop offset=".2679" stop-color="#2b86d0"/><stop offset=".2817" stop-color="#2b83ce"/><stop offset=".5249" stop-color="#264ba9"/><stop offset=".7343" stop-color="#22238e"/><stop offset=".8995" stop-color="#200a7d"/><stop offset="1" stop-color="#1f0177"/></linearGradient><linearGradient id="c" x1="99.918%" x2=".022%" y1="49.905%" y2="49.905%"><stop offset=".06989" stop-color="#ffbd00"/><stop offset=".1052" stop-color="#f4ba0b"/><stop offset=".351" stop-color="#ada850"/><stop offset=".5721" stop-color="#759987"/><stop offset=".7607" stop-color="#4d8faf"/><stop offset=".9095" stop-color="#3488c7"/><stop offset="1" stop-color="#2b86d0"/></linearGradient><linearGradient id="d"><stop offset=".2246" stop-color="#ffbd00"/><stop offset=".3894" stop-color="#d49331"/><stop offset=".5959" stop-color="#a46369"/><stop offset=".774" stop-color="#814091"/><stop offset=".9145" stop-color="#6c2baa"/><stop offset="1" stop-color="#6423b3"/></linearGradient><linearGradient id="e" x1="232.895%" x2="-241.64%" xlink:href="#d" y1="-170.331%" y2="420.945%"/><linearGradient id="f" x1="152.676%" x2="-321.859%" xlink:href="#d" y1="-71.284%" y2="519.993%"/><linearGradient id="g" x1="68.509%" x2="-406.026%" xlink:href="#d" y1="35.823%" y2="627.1%"/><linearGradient id="h" x1="58.375%" x2="49.288%" y1="33.004%" y2="51.461%"><stop offset=".04423" stop-color="#ffbd00"/><stop offset=".06989" stop-color="#ffbd00"/><stop offset=".09714" stop-color="#f4ba0b"/><stop offset=".2865" stop-color="#ada850"/><stop offset=".4569" stop-color="#759987"/><stop offset=".6022" stop-color="#4d8faf"/><stop offset=".7169" stop-color="#3488c7"/><stop offset=".7866" stop-color="#2b86d0"/><stop offset="1" stop-color="#2b86d0"/></linearGradient><linearGradient id="i" x1="127.076%" x2="-17.642%" y1="61.277%" y2="37.549%"><stop offset=".1709" stop-color="#ffbd00"/><stop offset=".2158" stop-color="#fbbc04"/><stop offset=".2568" stop-color="#f0b90e"/><stop offset=".2962" stop-color="#deb421"/><stop offset=".3346" stop-color="#c4ae3a"/><stop offset=".3724" stop-color="#a2a55b"/><stop offset=".4096" stop-color="#799a84"/><stop offset=".4457" stop-color="#498eb3"/><stop offset=".4658" stop-color="#2b86d0"/><stop offset=".5724" stop-color="#2759b2"/><stop offset=".679" stop-color="#233398"/><stop offset=".7774" stop-color="#211786"/><stop offset=".8642" stop-color="#20077b"/><stop offset=".9301" stop-color="#1f0177"/></linearGradient><linearGradient id="j" x1="103.301%" x2="-37.677%" y1="62.995%" y2="-2.701%"><stop offset=".06989" stop-color="#ffbd00"/><stop offset=".09032" stop-color="#f4ba0b"/><stop offset=".2323" stop-color="#ada850"/><stop offset=".36" stop-color="#759987"/><stop offset=".4689" stop-color="#4d8faf"/><stop offset=".5549" stop-color="#3488c7"/><stop offset=".6071" stop-color="#2b86d0"/><stop offset=".8727" stop-color="#232891"/><stop offset=".9785" stop-color="#1f0177"/></linearGradient><linearGradient id="k" x1="100.02%" x2="-32.272%" y1="50.006%" y2="50.006%"><stop offset=".06989" stop-color="#2b86d0"/><stop offset=".08738" stop-color="#2b83ce"/><stop offset=".3964" stop-color="#264ba9"/><stop offset=".6624" stop-color="#22238e"/><stop offset=".8723" stop-color="#200a7d"/><stop offset="1" stop-color="#1f0177"/></linearGradient><linearGradient id="l" x1="62.213%" x2="4.119%" y1="82.201%" y2="-2.396%"><stop offset=".06989" stop-color="#ffbd00"/><stop offset=".1895" stop-color="#fcbc03"/><stop offset=".2909" stop-color="#f1b90e"/><stop offset=".3859" stop-color="#e0b51f"/><stop offset=".4768" stop-color="#c7ae37"/><stop offset=".5648" stop-color="#a7a656"/><stop offset=".6507" stop-color="#809c7d"/><stop offset=".7333" stop-color="#5290a9"/><stop offset=".7951" stop-color="#2b86d0"/></linearGradient><linearGradient id="m" x1="53.346%" x2="49.458%" y1="25.807%" y2="53.948%"><stop offset=".06989" stop-color="#ffbd00"/><stop offset=".0981" stop-color="#f4ba0b"/><stop offset=".2942" stop-color="#ada850"/><stop offset=".4705" stop-color="#759987"/><stop offset=".621" stop-color="#4d8faf"/><stop offset=".7396" stop-color="#3488c7"/><stop offset=".8118" stop-color="#2b86d0"/></linearGradient><linearGradient id="n" x1="-39.947%" x2="88.478%" y1="27.615%" y2="59.53%"><stop offset="0" stop-color="#1f0177"/><stop offset=".5753" stop-color="#1f0177" stop-opacity="0"/></linearGradient><linearGradient id="o" x1="218.255%" x2="-4.887%" y1="-26.01%" y2="74.678%"><stop offset=".4658" stop-color="#1f0177"/><stop offset=".4758" stop-color="#1f0479"/><stop offset=".6533" stop-color="#243c9e"/><stop offset=".8061" stop-color="#2864b9"/><stop offset=".9266" stop-color="#2a7dca"/><stop offset="1" stop-color="#2b86d0"/></linearGradient><linearGradient id="p" x1="213.102%" x2="-3.528%" y1="-43.894%" y2="80.597%"><stop offset=".5002" stop-color="#1f0177"/><stop offset=".5096" stop-color="#1f0479"/><stop offset=".6757" stop-color="#243c9e"/><stop offset=".8186" stop-color="#2864b9"/><stop offset=".9314" stop-color="#2a7dca"/><stop offset="1" stop-color="#2b86d0"/></linearGradient><linearGradient id="q" x1="203.501%" x2=".263%" y1="-57.102%" y2="85.561%"><stop offset=".4468" stop-color="#1f0177"/><stop offset=".4572" stop-color="#1f0479"/><stop offset=".641" stop-color="#243c9e"/><stop offset=".7992" stop-color="#2864b9"/><stop offset=".924" stop-color="#2a7dca"/><stop offset="1" stop-color="#2b86d0"/></linearGradient><linearGradient id="r" x1="204.131%" x2="-.357%" y1="-54.929%" y2="84.252%"><stop offset=".4763" stop-color="#1f0177"/><stop offset=".4861" stop-color="#1f0479"/><stop offset=".6602" stop-color="#243c9e"/><stop offset=".8099" stop-color="#2864b9"/><stop offset=".9281" stop-color="#2a7dca"/><stop offset="1" stop-color="#2b86d0"/></linearGradient><linearGradient id="s"><stop offset=".2246" stop-color="#ffbd00"/><stop offset=".2838" stop-color="#e8aa0c"/><stop offset=".4805" stop-color="#a16f32"/><stop offset=".6575" stop-color="#693f4f"/><stop offset=".8085" stop-color="#411d65"/><stop offset=".9276" stop-color="#280972"/><stop offset="1" stop-color="#1f0177"/></linearGradient><linearGradient id="t" x1="-76.678%" x2="63.272%" xlink:href="#s" y1="463.333%" y2="45.217%"/><linearGradient id="u" x1="-55.459%" x2="84.491%" xlink:href="#s" y1="397.906%" y2="-20.21%"/><linearGradient id="v" x1="-32.597%" x2="107.354%" xlink:href="#s" y1="329.671%" y2="-88.445%"/><linearGradient id="w" x1="190.192%" x2="4.509%" y1="-67.973%" y2="89.247%"><stop offset=".503" stop-color="#1f0177"/><stop offset=".5123" stop-color="#1f0479"/><stop offset=".6775" stop-color="#243c9e"/><stop offset=".8196" stop-color="#2864b9"/><stop offset=".9318" stop-color="#2a7dca"/><stop offset="1" stop-color="#2b86d0"/></linearGradient><linearGradient id="x" x1="171.083%" x2="11.518%" y1="-79.773%" y2="92.072%"><stop offset=".5162" stop-color="#1f0177"/><stop offset=".5253" stop-color="#1f0479"/><stop offset=".686" stop-color="#243c9e"/><stop offset=".8244" stop-color="#2864b9"/><stop offset=".9336" stop-color="#2a7dca"/><stop offset="1" stop-color="#2b86d0"/></linearGradient><g fill="none"><path d="m168 27.586c-11.67-10.318-27.132-16.586-44.065-16.586-36.416 0-65.935 29.025-65.935 64.832 0 2.41.13 4.79.392 7.168h89.242z" fill="url(#a)"/><path d="m37.81 116.599a6.045 6.045 0 0 0 4.18-6.099c-.16-3.341-3.022-5.936-6.334-5.742-9.323.487-16.622-2.238-20.576-7.72-2.958-4.088-3.858-9.538-2.25-13.82 1.189-3.146-.387-6.65-3.505-7.817-3.119-1.2-6.591.389-7.749 3.535-3.054 8.175-1.606 17.842 3.794 25.304 3.73 5.158 12.7 13.657 30.93 12.684a7.833 7.833 0 0 0 1.51-.324z" fill="url(#b)"/><path d="m145.003 74.89c0 3.355-.202 4.996 2.632 6.53 2.868 1.5 5.905.25 7.794-5.638 1.013-3.176 1.316-7.743-4.69-8.743-3.138-.535-5.736 4.497-5.736 7.851z" fill="url(#c)"/><path d="m2 6.391c-.2.518-1 .73-1.8.487l.7-1.856c.8.213 1.3.852 1.1 1.37z" fill="url(#e)" transform="translate(148 71)"/><path d="m2.933 4.109c-.2.517-1 .73-1.8.487l.7-1.857c.8.213 1.3.852 1.1 1.37z" fill="url(#f)" transform="translate(148 71)"/><path d="m3.9 1.643c-.2.518-1 .73-1.8.487l.7-1.856c.8.243 1.3.852 1.1 1.37z" fill="url(#g)" transform="translate(148 71)"/><path d="m73.433 49.188c-1.009 1.944-.195 4.365 1.822 5.353l46.847 23.035c1.984.988 4.457.191 5.465-1.784 1.009-1.944.195-4.365-1.822-5.353l-46.847-23.035c-1.984-.956-4.457-.159-5.465 1.784z" fill="#ffbd00"/><path d="m162.58 138.162.866-1.717c1.284-2.559.257-5.7-2.278-6.964l-101.848-51.922a5.103 5.103 0 0 0 -6.9 2.3l-.867 1.716c-1.284 2.559-.257 5.7 2.278 6.964l101.847 51.922c2.503 1.264 5.617.227 6.9-2.3z" fill="url(#h)"/><path d="m154.615 137.843 5.043 1.932c1.505.747 2.696-.436 3.886-2.492l4.552-9.19c1.155-2.055 1.856-4.142-2.1-5.637-5.813-2.243-8.51-2.492-9.63 3.613l-2.31 10.155c0-.032-.316 1.214.56 1.62z" fill="#2b86d0"/><path d="m26.04 115.286 29.55 1.677c16.875.483 24.666-3.675 25.41-15.41l-1.616-66.665c-1.035-19.116-1.552-18.73-1.552-18.73l-4.979-2.836c-6.175-1.612-10.766 2.869-16.844 12.7l-41.089 60.994c-8.05 12.862 2.166 25.95 11.121 28.271z" fill="url(#i)"/><path d="m48.456 49.485c1.057-2.21 3.617-3.127 5.729-2.005l34.69 18.692v-11.827-.034-.034c0-2.447 1.887-4.486 4.223-4.486h8.609c2.304 0 4.224 2.005 4.224 4.486 0 2.447.512 4.826-1.248 4.52l-7.265-.068v15.125c0 .068 0 .136-.032.203 0 .068-.032.17-.032.238s-.032.136-.032.204c-.032.068-.032.17-.064.238s-.032.136-.064.204a.66.66 0 0 0 -.064.238.504.504 0 0 0 -.064.204c-.032.034-.032.102-.064.136 0 .034-.032.034-.032.068-.032.068-.064.102-.096.17s-.096.136-.128.238c-.032.034-.064.102-.096.136-.064.068-.096.136-.16.204-.032.034-.064.102-.128.136-.064.068-.096.136-.16.17l-.192.203c-.032.034-.064.068-.096.068a4.033 4.033 0 0 1 -2.752 1.088c-.736 0-1.44-.204-2.08-.578l-40.705-21.888c-2.145-1.121-2.977-3.84-1.92-6.05z" fill="url(#j)"/><path d="m105.736 82.361 9.227-29.361h43.037l-10.564 31h-62.436v-1.639z" fill="url(#k)"/><path d="m70.174 13.325a8.36 8.36 0 0 1 -.159-8.36c2.127-3.83 6.793-5.096 10.443-2.865 3.174 1.932 4.508 5.93 3.397 9.427 3.713 2.265 15.204 10.292 15.997 10.825 1.619 1.066 2.063 1.899-2.317 6.562-3.904 4.164-12.601 3.697-16.918 1.066-4.317-2.632-13.617-11.525-13.617-11.525.444-.833 1.746-2.898 3.174-5.13z" fill="url(#l)"/><path d="m22.148 37.338c2.509 4.048 8.394 4.871 13.056 1.81l37.754-24.688c4.663-3.028 7.654-7.966 5.113-11.982-2.54-5.3-11.673-.625-13.892.527l-38.14 21.462c-4.663 3.028-6.4 8.822-3.89 12.87z" fill="#ffbd00"/><ellipse cx="82" cy="12.5" fill="#1f0177" rx="2" ry="1.5" transform="matrix(.72536236 -.68836724 .68836724 .72536236 13.915696 59.879084)"/><path d="m150.342 138.946.522-2.259c.652-2.815-1.109-5.63-3.882-6.317l-116.029-27.234c-2.805-.654-5.61 1.113-6.295 3.896l-.522 2.258c-.652 2.815 1.109 5.63 3.882 6.318l116.029 27.266c2.805.622 5.643-1.113 6.295-3.928z" fill="url(#m)"/><path d="m150.342 138.946.522-2.259c.652-2.815-1.109-5.63-3.882-6.317l-116.029-27.234c-2.805-.654-5.61 1.113-6.295 3.896l-.522 2.258c-.652 2.815 1.109 5.63 3.882 6.318l116.029 27.266c2.805.622 5.643-1.113 6.295-3.928z" fill="url(#n)"/><path d="m139.845 143.136 4.797.86c1.762.064 2.121-.574 3.068-4.206l3.1-10.768c.98-3.983-2.023-4.652-4.569-5.225-4.667-.797-7.571-2.613-7.67 4.683l-.39 7.296c-.099 4.556-.85 6.786 1.664 7.36z" fill="#2b86d0"/><path d="m104 22.326s-1.054 2.027-2.872 3.674c0 0-6.07-1.552-3.489-7z" fill="#1f0177"/><path d="m165.447 125.837c-.596.741-.596 1.624 0 2.012.596.353 1.51.07 2.106-.67.596-.742.596-1.624 0-2.012-.556-.389-1.51-.071-2.106.67z" fill="url(#o)"/><path d="m162.276 126.005c-.464.785-.337 1.638.338 1.91.675.273 1.603-.136 2.11-.92.464-.785.337-1.638-.338-1.91-.675-.273-1.646.136-2.11.92z" fill="url(#p)"/><path d="m160.153 124.149c-.35.803-.087 1.64.658 1.807.745.2 1.622-.301 2.016-1.105.395-.803.088-1.64-.657-1.807-.745-.2-1.622.301-2.017 1.105z" fill="url(#q)"/><path d="m148.18 126.116c-.39.802-.13 1.637.606 1.838.736.2 1.644-.268 2.034-1.07s.13-1.637-.606-1.838c-.736-.2-1.644.268-2.034 1.07z" fill="url(#r)"/><path d="m6.72.35c.576 0 1.088 1.15 1.088 2.55l-2.144.05c0-1.4.48-2.55 1.056-2.6z" fill="url(#t)" transform="translate(96 56)"/><path d="m4.096.35c.576 0 1.088 1.15 1.088 2.55l-2.144.05c0-1.45.448-2.6 1.056-2.6z" fill="url(#u)" transform="translate(96 56)"/><path d="m1.28.3c.576 0 1.088 1.15 1.088 2.55l-2.144.05c0-1.4.448-2.6 1.056-2.6z" fill="url(#v)" transform="translate(96 56)"/><path d="m146.059 126.284c-.229.816.229 1.567 1.006 1.698.824.13 1.647-.457 1.876-1.273s-.229-1.567-1.006-1.698c-.824-.098-1.647.457-1.876 1.273z" fill="url(#w)"/><path d="m142.01 126.403a1.42 1.42 0 0 0 1.304 1.593c.838.065 1.583-.586 1.677-1.398a1.42 1.42 0 0 0 -1.305-1.593c-.792-.065-1.537.552-1.677 1.398z" fill="url(#x)"/><g fill="#2b86d0"><circle cx="96.5" cy="24.5" r="1"/><circle cx="92.5" cy="27.5" r="1"/><circle cx="96.5" cy="27.5" r="1"/></g></g></svg>